<svg id="Component_12" data-name="Component 12" xmlns="http://www.w3.org/2000/svg" width="24" height="24" viewBox="0 0 24 24">
  <path id="Vector" d="M2.046,24A2.03,2.03,0,0,1,.6,23.4a2.066,2.066,0,0,1,0-2.9L20.494.6a2.052,2.052,0,0,1,2.9,2.9L3.5,23.4A1.943,1.943,0,0,1,2.046,24Z" fill="#fe6b6b"/>
  <path id="Vector-2" data-name="Vector" d="M21.944,24a2.03,2.03,0,0,1-1.451-.6L.6,3.5A2.052,2.052,0,0,1,3.5.6l19.9,19.9a2.066,2.066,0,0,1,0,2.9A2.03,2.03,0,0,1,21.944,24Z" transform="translate(0.01)" fill="#fe6b6b"/>
</svg>
