<svg id="vuesax_outline_bag" data-name="vuesax/outline/bag" xmlns="http://www.w3.org/2000/svg" width="24" height="24" viewBox="0 0 24 24">
  <g id="bag" transform="translate(-108 -188)">
    <path id="Vector" d="M.748,5.128a.767.767,0,0,1-.53-.22.754.754,0,0,1,0-1.06L3.848.218a.75.75,0,1,1,1.06,1.06l-3.63,3.63A.786.786,0,0,1,.748,5.128Z" transform="translate(112.442 189.253)" fill="#fe6b6b"/>
    <path id="Vector-2" data-name="Vector" d="M4.378,5.128a.742.742,0,0,1-.53-.22L.218,1.277A.75.75,0,0,1,1.278.218l3.63,3.63a.754.754,0,0,1,0,1.06A.767.767,0,0,1,4.378,5.128Z" transform="translate(122.432 189.253)" fill="#fe6b6b"/>
    <path id="Vector-3" data-name="Vector" d="M18.96,5.5H2.75A2.693,2.693,0,0,1,.67,4.93,2.906,2.906,0,0,1,0,2.75C0,0,2.01,0,2.97,0H18.53c.96,0,2.97,0,2.97,2.75a2.891,2.891,0,0,1-.67,2.18A2.48,2.48,0,0,1,18.96,5.5ZM2.97,4H18.76c.45.01.87.01,1.01-.13.07-.07.22-.31.22-1.12,0-1.13-.28-1.25-1.47-1.25H2.97c-1.19,0-1.47.12-1.47,1.25,0,.81.16,1.05.22,1.12A2.013,2.013,0,0,0,2.73,4Z" transform="translate(109.25 193.1)" fill="#fe6b6b"/>
    <path id="Vector-4" data-name="Vector" d="M.75,5.05A.755.755,0,0,1,0,4.3V.75A.755.755,0,0,1,.75,0,.755.755,0,0,1,1.5.75V4.3A.749.749,0,0,1,.75,5.05Z" transform="translate(117.01 201.25)" fill="#fe6b6b"/>
    <path id="Vector-5" data-name="Vector" d="M.75,5.05A.755.755,0,0,1,0,4.3V.75A.755.755,0,0,1,.75,0,.755.755,0,0,1,1.5.75V4.3A.749.749,0,0,1,.75,5.05Z" transform="translate(121.61 201.25)" fill="#fe6b6b"/>
    <path id="Vector-6" data-name="Vector" d="M12.141,13.5H6.111c-3.58,0-4.38-2.13-4.69-3.98L.011.871a.75.75,0,0,1,1.48-.24L2.9,9.271c.29,1.77.89,2.73,3.21,2.73h6.03c2.57,0,2.86-.9,3.19-2.64l1.68-8.75a.737.737,0,0,1,.88-.59.744.744,0,0,1,.59.88L16.8,9.651C16.411,11.681,15.761,13.5,12.141,13.5Z" transform="translate(110.749 197.249)" fill="#fe6b6b"/>
    <path id="Vector-7" data-name="Vector" d="M0,0H24V24H0Z" transform="translate(108 188)" fill="none" opacity="0"/>
  </g>
</svg>
