<svg id="user-edit" xmlns="http://www.w3.org/2000/svg" width="24" height="24" viewBox="0 0 24 24">
  <path id="Vector" d="M5.75,11.5A5.75,5.75,0,1,1,11.5,5.75,5.757,5.757,0,0,1,5.75,11.5Zm0-10A4.25,4.25,0,1,0,10,5.75,4.259,4.259,0,0,0,5.75,1.5Z" transform="translate(6.25 1.25)" fill="#707070"/>
  <path id="Vector-2" data-name="Vector" d="M1.4,8.329a1.406,1.406,0,0,1-1-.4A1.423,1.423,0,0,1,.018,6.7l.19-1.35a2.019,2.019,0,0,1,.51-1.02L4.258.789a2.109,2.109,0,0,1,3.28,0,2.352,2.352,0,0,1,.79,1.64,2.292,2.292,0,0,1-.79,1.63L4,7.6a1.98,1.98,0,0,1-1.02.51l-1.35.19A.908.908,0,0,1,1.4,8.329ZM5.888,1.5c-.18,0-.34.12-.57.35l-3.54,3.54a.38.38,0,0,0-.08.17l-.18,1.25,1.25-.18a.556.556,0,0,0,.17-.09L6.478,3a1.038,1.038,0,0,0,.35-.57.947.947,0,0,0-.35-.58C6.238,1.609,6.058,1.5,5.888,1.5Z" transform="translate(14.422 14.42)" fill="#707070"/>
  <path id="Vector-3" data-name="Vector" d="M2.967,3.717a.645.645,0,0,1-.2-.03A3.977,3.977,0,0,1,.027.947a.747.747,0,0,1,1.44-.4,2.466,2.466,0,0,0,1.7,1.7.749.749,0,0,1-.2,1.47Z" transform="translate(17.953 15.502)" fill="#707070"/>
  <path id="Vector-4" data-name="Vector" d="M.75,8.5A.755.755,0,0,1,0,7.75C0,3.48,4.19,0,9.34,0a11.217,11.217,0,0,1,3.18.46.747.747,0,1,1-.43,1.43,9.677,9.677,0,0,0-2.75-.4c-4.32,0-7.84,2.8-7.84,6.25A.758.758,0,0,1,.75,8.5Z" transform="translate(2.66 14.25)" fill="#707070"/>
  <path id="Vector-5" data-name="Vector" d="M0,0H24V24H0Z" fill="none" opacity="0"/>
</svg>
