<svg id="document-text" xmlns="http://www.w3.org/2000/svg" width="24" height="24" viewBox="0 0 24 24">
  <path id="Vector" d="M13.85,21.656H5.792C2.115,21.656,0,19.541,0,15.864V5.792C0,2.115,2.115,0,5.792,0H13.85c3.677,0,5.792,2.115,5.792,5.792V15.864C19.642,19.541,17.526,21.656,13.85,21.656ZM5.792,1.511c-2.881,0-4.281,1.4-4.281,4.281V15.864c0,2.881,1.4,4.281,4.281,4.281H13.85c2.881,0,4.281-1.4,4.281-4.281V5.792c0-2.881-1.4-4.281-4.281-4.281Z" transform="translate(2.109 1.172)" fill="#707070"/>
  <path id="Vector-2" data-name="Vector" d="M4.453,5.156H2.578A2.577,2.577,0,0,1,0,2.578V.7A.708.708,0,0,1,.7,0a.708.708,0,0,1,.7.7V2.578A1.172,1.172,0,0,0,2.578,3.75H4.453a.7.7,0,0,1,0,1.406Z" transform="translate(14.006 3.82)" fill="#707070"/>
  <path id="Vector-3" data-name="Vector" d="M4.453,1.406H.7A.708.708,0,0,1,0,.7.708.708,0,0,1,.7,0h3.75a.708.708,0,0,1,.7.7A.708.708,0,0,1,4.453,1.406Z" transform="translate(7.385 12.301)" fill="#707070"/>
  <path id="Vector-4" data-name="Vector" d="M8.2,1.406H.7A.708.708,0,0,1,0,.7.708.708,0,0,1,.7,0H8.2a.708.708,0,0,1,.7.7A.708.708,0,0,1,8.2,1.406Z" transform="translate(7.547 16.318)" fill="#707070"/>
  <path id="Vector-5" data-name="Vector" d="M0,0H24V24H0Z" fill="none" opacity="0"/>
  <path id="Vector-6" data-name="Vector" d="M0,0H24V24H0Z" fill="none" opacity="0"/>
</svg>
